<?xml version="1.0" encoding="utf-8"?>
<!-- Generator: Adobe Illustrator 27.3.1, SVG Export Plug-In . SVG Version: 6.00 Build 0)  -->
<svg version="1.1" id="Layer_1" xmlns="http://www.w3.org/2000/svg" xmlns:xlink="http://www.w3.org/1999/xlink" x="0px" y="0px"
	 viewBox="0 0 377.3 290.7" style="enable-background:new 0 0 377.3 290.7;" xml:space="preserve">
<style type="text/css">
	.st0{fill:#EF9C00;}
	.st1{fill:#0086AD;}
</style>
<path class="st0" d="M365.1,115.9L196.1,7.4c-4.4-2.7-9.8-2.7-14.1,0L12.9,116c-3.8,2.6-6.1,6.8-6.1,11.4V153
	c0,7.4,6,13.5,13.3,13.5h15.7c1.7,0,3-1.3,3-3s-1.3-3-3-3H20.1c-4,0-7.3-3.4-7.3-7.5v-25.6c0-2.6,1.3-5,3.4-6.4l169-108.6
	c1.2-0.7,2.5-1.1,3.8-1.1V272c0,5.8,4.6,10.4,10.3,10.4h120.4c4.7,0,8.6-3.2,9.9-7.5c0.8-0.5,1.4-1.4,1.4-2.5v-98.5
	c0-4.1,3.3-7.5,7.3-7.5H358c7.3,0,13.3-6.1,13.3-13.5v-25.6C371.3,122.8,368.9,118.4,365.1,115.9z M274.9,269.9
	c0,3.6-2.9,6.5-6.4,6.5h-66.3c-3.5,0-6.3-2.9-7.3-6.5v-81.1c1-22.4,18.7-40.6,40.5-40.6c21.8,0,39.5,18.2,39.5,40.6V269.9z"/>
<path class="st1" d="M102.9,271.4c-6.3,0-12.8,0-19,0v-29h-22v29c-6.7,0-13.4,0-20,0v-72c6.6,0,13.8,0,20,0v26h22v-27
	c6.3,0,12.7,0,19,0V271.4z"/>
<path class="st1" d="M110.6,234.9c0-50.3,74.6-50.3,74.6,0C185.2,285.3,110.6,285.3,110.6,234.9z M166.2,234.9
	c0-26.2-36.5-26.2-36.5,0C129.7,261.3,166.2,261.3,166.2,234.9z"/>
<path class="st1" d="M326,215.4c-10.7,0-15.2,0-26,0v10h25c0,5.4,0,11.8,0,17h-25c0,4,0,7.9,0,12c10.8,0,16.2,0,27,0
	c0,5.6,0,11.3,0,17c-16.9,0-29.3,0-46,0c0-25,0-48.3,0-73c16.7,0,28.1,0,45,0C326,203.9,326,209.7,326,215.4z"/>
<path class="st1" d="M263.7,198.4L234.8,230l-28.5-31.6h-6.9v73c6.3,0,12.6,0,19,0v-32l15.4,16h2.1l15.5-16v32c6.4,0,12.7,0,19,0
	v-73H263.7z M262.9,228.4c-1.7,0-3-1.3-3-3s1.3-3,3-3s3,1.3,3,3S264.6,228.4,262.9,228.4z"/>
<g>
	<polygon class="st1" points="160.2,157.1 160.2,146.9 126.7,146.9 126.7,193.4 160.1,193.4 160.1,183.3 139.3,183.3 139.3,175.3 
		158.5,175.3 158.5,165.1 139.3,165.1 139.3,157.1 	"/>
	<path class="st1" d="M71.1,148.9c-2.6-1.3-5.6-2-9.1-2H41.9v46.5v0h12.7v-13.7h7c3.5,0,6.6-0.7,9.3-2c2.7-1.3,4.7-3.2,6.2-5.6
		c1.5-2.5,2.2-5.4,2.2-8.7c0-3.3-0.8-6.2-2.2-8.7C75.7,152.2,73.7,150.2,71.1,148.9z M65.3,166.9c-0.5,0.9-1.3,1.7-2.4,2.2
		c-1,0.5-2.3,0.8-3.8,0.8h-4.5v-12.8h4.5c1.5,0,2.8,0.3,3.8,0.8s1.8,1.2,2.4,2.2c0.6,0.9,0.9,2.1,0.9,3.4S65.9,165.9,65.3,166.9z"/>
	<path class="st1" d="M119.1,171.1c1.5-2.3,2.2-5.1,2.2-8.4c0-3.3-0.8-6.1-2.2-8.5c-1.4-2.3-3.4-4.1-6-5.4c-2.6-1.3-5.6-1.9-9.1-1.9
		H83.9v46.5h12.7v-15.3h4.3l8.2,15.3h13.7l-9.4-17.3C115.8,174.9,117.7,173.3,119.1,171.1z M96.6,157.1h4.5c1.5,0,2.8,0.2,3.8,0.6
		c1,0.4,1.8,1.1,2.4,1.9c0.6,0.8,0.9,1.9,0.9,3.2c0,1.3-0.3,2.4-0.9,3.2c-0.5,0.8-1.3,1.4-2.4,1.8c-1,0.3-2.3,0.5-3.8,0.5h-4.5
		V157.1z"/>
</g>
</svg>
