<?xml version="1.0" encoding="utf-8"?>
<!-- Generator: Adobe Illustrator 27.3.1, SVG Export Plug-In . SVG Version: 6.00 Build 0)  -->
<svg version="1.1" id="Layer_1" xmlns="http://www.w3.org/2000/svg" xmlns:xlink="http://www.w3.org/1999/xlink" x="0px" y="0px"
	 viewBox="0 0 377.3 290.7" style="enable-background:new 0 0 377.3 290.7;" xml:space="preserve">
<style type="text/css">
	.st0{fill:#FFFFFF;}
</style>
<g>
	<path class="st0" d="M83.6,226.9h-22v-26c-6.2,0-13.4,0-20,0v72c6.6,0,13.3,0,20,0v-29h22v29c6.2,0,12.7,0,19,0v-73
		c-6.3,0-12.7,0-19,0V226.9z"/>
	<path class="st0" d="M110.2,236.4c0,50.4,74.6,50.4,74.6,0C184.9,186.1,110.2,186.1,110.2,236.4z M129.4,236.4
		c0-26.2,36.5-26.2,36.5,0C165.9,262.8,129.4,262.8,129.4,236.4z"/>
	<path class="st0" d="M205.9,199.9h-6.9v73c6.3,0,12.6,0,19,0v-32l15.4,16h2.1l15.5-16v32c6.4,0,12.7,0,19,0v-73h-6.7l-28.9,31.6
		L205.9,199.9z M262.6,223.9c1.7,0,3,1.3,3,3c0,1.7-1.3,3-3,3s-3-1.3-3-3C259.6,225.2,260.9,223.9,262.6,223.9z"/>
	<polygon class="st0" points="159.9,158.6 159.9,148.4 126.4,148.4 126.4,194.9 159.8,194.9 159.8,184.8 138.9,184.8 138.9,176.8 
		158.1,176.8 158.1,166.6 138.9,166.6 138.9,158.6 	"/>
	<path class="st0" d="M61.2,181.2c3.5,0,6.6-0.7,9.3-2c2.7-1.3,4.7-3.2,6.2-5.6c1.5-2.5,2.2-5.4,2.2-8.7c0-3.3-0.8-6.2-2.2-8.7
		c-1.4-2.5-3.4-4.5-6-5.8c-2.6-1.3-5.6-2-9.1-2H41.6v46.5v0h12.7v-13.7H61.2z M58.7,158.6c1.5,0,2.8,0.3,3.8,0.8s1.8,1.2,2.4,2.2
		c0.6,0.9,0.9,2.1,0.9,3.4s-0.3,2.4-0.9,3.4c-0.5,0.9-1.3,1.7-2.4,2.2c-1,0.5-2.3,0.8-3.8,0.8h-4.5v-12.8H58.7z"/>
	<path class="st0" d="M113,177.5c2.4-1.2,4.3-2.8,5.7-5c1.5-2.3,2.2-5.1,2.2-8.4c0-3.3-0.8-6.1-2.2-8.5c-1.4-2.3-3.4-4.1-6-5.4
		c-2.6-1.3-5.6-1.9-9.1-1.9H83.6v46.5h12.7v-15.3h4.3l8.2,15.3h13.7L113,177.5z M96.2,158.6h4.5c1.5,0,2.8,0.2,3.8,0.6
		c1,0.4,1.8,1.1,2.4,1.9c0.6,0.8,0.9,1.9,0.9,3.2c0,1.3-0.3,2.4-0.9,3.2c-0.5,0.8-1.3,1.4-2.4,1.8c-1,0.3-2.3,0.5-3.8,0.5h-4.5
		V158.6z"/>
	<path class="st0" d="M364.6,117.4L195.6,8.9c-4.4-2.7-9.8-2.7-14.1,0l-169,108.5c-3.8,2.6-6.1,6.8-6.1,11.4v25.6
		c0,7.4,6,13.5,13.3,13.5h15.7c1.7,0,3-1.3,3-3c0-1.7-1.3-3-3-3H19.8c-4,0-7.3-3.4-7.3-7.5v-25.6c0-2.6,1.3-5,3.4-6.4l169-108.5
		c1.2-0.7,2.5-1.1,3.8-1.1v260.7c0,5.8,4.6,10.4,10.3,10.4h120.4c4.7,0,8.6-3.2,9.9-7.5c0.8-0.5,1.4-1.4,1.3-2.5v-98.5
		c0-4.1,3.3-7.5,7.3-7.5h19.7c7.3,0,13.3-6.1,13.3-13.5v-25.6C370.9,124.3,368.4,119.9,364.6,117.4z M274.6,271.4
		c0,3.6-2.9,6.5-6.4,6.5h-66.3c-3.5,0-6.3-2.9-7.3-6.5v-81.1c1-22.4,18.7-40.6,40.5-40.6c21.8,0,39.5,18.2,39.5,40.6V271.4z
		 M324.6,216.9c-10,0-14.5,0-25,0v10h25c0,5.4,0,11.8,0,17h-25c0,4,0,7.9,0,12c10.1,0,15.5,0,25,0v17c-15.9,0-28,0-44,0
		c0-25,0-48.3,0-73c16.4,0,27.7,0,44,0V216.9z"/>
</g>
</svg>
